<svg width="366" height="260" viewBox="0 0 366 260" fill="none" xmlns="http://www.w3.org/2000/svg">
<path d="M59.0617 183V78H124.162C131.562 78 138.212 79.55 144.112 82.65C150.012 85.65 154.712 89.8 158.212 95.1C161.712 100.4 163.462 106.5 163.462 113.4C163.462 120.8 161.562 127.4 157.762 133.2C154.062 139 149.012 143.55 142.612 146.85C136.212 150.15 129.062 151.8 121.162 151.8H88.7617V183H59.0617ZM88.3117 126.15H114.862C118.162 126.15 121.062 125.7 123.562 124.8C126.162 123.8 128.262 122.35 129.862 120.45C131.462 118.55 132.262 116.35 132.262 113.85C132.262 111.55 131.462 109.65 129.862 108.15C128.262 106.65 126.162 105.55 123.562 104.85C121.062 104.05 118.162 103.65 114.862 103.65H88.3117V126.15ZM279.283 183V78H308.983V183H279.283ZM194.683 183V78H224.383V183H194.683ZM205.933 144.3L206.233 118.2H295.633V144.3H205.933Z" fill="#FFD701"/>
<path d="M80.7682 233V207.8H95.3842C97.4002 207.8 99.1162 208.136 100.532 208.808C101.948 209.456 103.028 210.392 103.772 211.616C104.516 212.816 104.888 214.232 104.888 215.864C104.888 217.472 104.468 218.924 103.628 220.22C102.788 221.492 101.648 222.5 100.208 223.244C98.7682 223.964 97.1602 224.324 95.3842 224.324H86.6002V233H80.7682ZM99.2722 233L90.7042 221.624L97.1122 220.724L106.4 233H99.2722ZM86.6002 219.644H94.6642C95.3842 219.644 96.0442 219.5 96.6442 219.212C97.2682 218.924 97.7602 218.528 98.1202 218.024C98.5042 217.496 98.6962 216.884 98.6962 216.188C98.6962 215.492 98.5042 214.904 98.1202 214.424C97.7602 213.944 97.2682 213.572 96.6442 213.308C96.0202 213.044 95.3362 212.912 94.5922 212.912H86.6002V219.644ZM117.401 233V207.8H140.009V213.02H123.341V227.78H140.369V233H117.401ZM120.641 222.668V217.7H138.389V222.668H120.641ZM159.777 233L148.149 207.8H154.485L160.065 220.364C160.209 220.7 160.425 221.168 160.713 221.768C161.025 222.368 161.349 223.052 161.685 223.82C162.021 224.588 162.345 225.392 162.657 226.232C162.993 227.048 163.269 227.852 163.485 228.644H162.153C162.465 227.684 162.825 226.712 163.233 225.728C163.641 224.744 164.049 223.796 164.457 222.884C164.865 221.972 165.213 221.156 165.501 220.436L170.829 207.8H177.129L165.789 233H159.777ZM186.641 233V227.6H193.409V213.2H186.641V207.8H206.333V213.2H199.529V227.6H206.333V233H186.641ZM219.424 233V207.8H242.032V213.02H225.364V227.78H242.392V233H219.424ZM222.664 222.668V217.7H240.412V222.668H222.664ZM258.992 233L250.172 207.8H256.544L260.792 220.076C260.96 220.556 261.14 221.132 261.332 221.804C261.548 222.476 261.752 223.184 261.944 223.928C262.16 224.648 262.34 225.344 262.484 226.016C262.652 226.664 262.772 227.216 262.844 227.672H261.512C261.632 227.024 261.8 226.292 262.016 225.476C262.256 224.636 262.532 223.748 262.844 222.812C263.18 221.876 263.528 220.976 263.888 220.112L267.74 211.076H272.888L276.668 220.04C277.028 220.928 277.376 221.84 277.712 222.776C278.048 223.688 278.336 224.552 278.576 225.368C278.84 226.184 279.008 226.904 279.08 227.528L277.856 227.636C277.904 227.252 277.976 226.808 278.072 226.304C278.192 225.8 278.312 225.26 278.432 224.684C278.576 224.108 278.72 223.532 278.864 222.956C279.032 222.38 279.2 221.828 279.368 221.3C279.536 220.772 279.692 220.304 279.836 219.896L284.696 207.8H290.78L280.88 233H276.2L269.576 217.304L270.62 217.376L264.176 233H258.992Z" fill="white"/>
<path d="M93.414 51.36C91.038 51.36 88.878 51.036 86.934 50.388C84.99 49.716 83.31 48.792 81.894 47.616C80.478 46.416 79.374 45.024 78.582 43.44C77.814 41.856 77.43 40.14 77.43 38.292C77.43 36.444 77.814 34.728 78.582 33.144C79.374 31.56 80.478 30.18 81.894 29.004C83.334 27.804 85.014 26.88 86.934 26.232C88.878 25.56 91.026 25.224 93.378 25.224C95.706 25.224 97.842 25.56 99.786 26.232C101.73 26.88 103.41 27.804 104.826 29.004C106.242 30.18 107.334 31.56 108.102 33.144C108.894 34.728 109.29 36.444 109.29 38.292C109.29 40.14 108.894 41.856 108.102 43.44C107.334 45.024 106.242 46.416 104.826 47.616C103.41 48.792 101.73 49.716 99.786 50.388C97.842 51.036 95.718 51.36 93.414 51.36ZM93.378 45.6C94.794 45.6 96.09 45.42 97.266 45.06C98.466 44.676 99.498 44.16 100.362 43.512C101.226 42.84 101.886 42.06 102.342 41.172C102.822 40.284 103.062 39.324 103.062 38.292C103.062 37.26 102.822 36.3 102.342 35.412C101.886 34.524 101.226 33.756 100.362 33.108C99.498 32.436 98.466 31.92 97.266 31.56C96.09 31.176 94.794 30.984 93.378 30.984C91.962 30.984 90.654 31.176 89.454 31.56C88.278 31.92 87.246 32.436 86.358 33.108C85.494 33.756 84.834 34.524 84.378 35.412C83.922 36.3 83.694 37.26 83.694 38.292C83.694 39.324 83.922 40.284 84.378 41.172C84.834 42.06 85.494 42.84 86.358 43.512C87.246 44.16 88.278 44.676 89.454 45.06C90.654 45.42 91.962 45.6 93.378 45.6ZM119.94 51V25.8H125.772L144.024 43.8L143.196 43.62C143.052 42.708 142.932 41.832 142.836 40.992C142.764 40.152 142.704 39.348 142.656 38.58C142.608 37.812 142.572 37.068 142.548 36.348C142.524 35.628 142.5 34.908 142.476 34.188C142.476 33.468 142.476 32.748 142.476 32.028V25.8H148.416V51H142.512L123.684 32.424L125.16 32.676C125.232 33.036 125.292 33.444 125.34 33.9C125.412 34.356 125.472 34.872 125.52 35.448C125.592 36.024 125.652 36.672 125.7 37.392C125.772 38.088 125.82 38.868 125.844 39.732C125.868 40.596 125.88 41.544 125.88 42.576V51H119.94ZM160.792 51V25.8H166.912V45.6H183.184V51H160.792ZM194.207 51V45.6H200.975V31.2H194.207V25.8H213.899V31.2H207.095V45.6H213.899V51H194.207ZM226.991 51V25.8H232.823L251.075 43.8L250.247 43.62C250.103 42.708 249.983 41.832 249.887 40.992C249.815 40.152 249.755 39.348 249.707 38.58C249.659 37.812 249.623 37.068 249.599 36.348C249.575 35.628 249.551 34.908 249.527 34.188C249.527 33.468 249.527 32.748 249.527 32.028V25.8H255.467V51H249.563L230.735 32.424L232.211 32.676C232.283 33.036 232.343 33.444 232.391 33.9C232.463 34.356 232.523 34.872 232.571 35.448C232.643 36.024 232.703 36.672 232.751 37.392C232.823 38.088 232.871 38.868 232.895 39.732C232.919 40.596 232.931 41.544 232.931 42.576V51H226.991ZM267.842 51V25.8H290.45V31.02H273.782V45.78H290.81V51H267.842ZM271.082 40.668V35.7H288.83V40.668H271.082Z" fill="white"/>
<path d="M58 34H38C31.3726 34 26 39.3726 26 46V187C26 193.627 31.3726 199 38 199H58M303.5 34H328C334.627 34 340 39.3726 340 46V187C340 193.627 334.627 199 328 199H303.5" stroke="white" stroke-width="5"/>
<line x1="304" y1="222" x2="339" y2="222" stroke="white" stroke-width="4"/>
<line x1="25" y1="222" x2="60" y2="222" stroke="white" stroke-width="4"/>
</svg>
